<?xml version="1.0" encoding="UTF-8"?>
<svg version="1.1" xmlns="http://www.w3.org/2000/svg" width="512" height="512">
<path d="M0 0 C2 2 2 2 2.375 4.4375 C1.92423575 8.71976036 0.56816993 12.23854383 -1.02734375 16.21875 C-2.04901534 19.14015633 -2.57249271 21.93994782 -3 25 C-2.34515625 24.20078125 -1.6903125 23.4015625 -1.015625 22.578125 C3.95668834 16.5719461 9.04332555 10.7624149 14.5625 5.25 C15.07458008 4.73727539 15.58666016 4.22455078 16.11425781 3.69628906 C19.55230673 0.30910569 21.08194183 -0.86884883 25.9375 -1.5625 C34.01822027 -1.4973329 40.23223538 5.12193252 45.6875 10.5 C46.450625 11.325 47.21375 12.15 48 13 C48.12955078 12.07767578 48.12955078 12.07767578 48.26171875 11.13671875 C49.40128297 4.58161083 49.40128297 4.58161083 52.1875 1.875 C56.16616026 0.63719459 58.00301107 0.6450885 62 2 C85.01934476 21.15925014 95.17954887 58.61634779 98 87 C98.12148913 89.73442706 98.20900483 92.44506748 98.23828125 95.1796875 C98.24802979 95.94154358 98.25777832 96.70339966 98.26782227 97.48834229 C98.51262243 121.62013018 96.26988 143.95515303 89.953125 167.34375 C88.91591548 170.69281367 88.91591548 170.69281367 89 173 C89.63164062 172.67837891 90.26328125 172.35675781 90.9140625 172.02539062 C110.96999993 161.89627525 131.49283801 151.92974694 154.3125 151.6875 C155.21162109 151.65849609 156.11074219 151.62949219 157.03710938 151.59960938 C171.9604382 151.45933224 182.92481698 161.69284287 193.37109375 171.3515625 C196.83172152 174.83790073 199.83046796 178.61317083 202.890625 182.44921875 C208.28305817 188.97006849 212.67528007 192.17023357 220.85546875 194.28125 C223 195 223 195 225.125 197.125 C227.18616238 203.89739067 226.44496629 208.69995839 223.4375 215.125 C218.54670969 224.10854957 212.11448268 229.44929703 203 234 C201.92105469 234.55429688 200.84210938 235.10859375 199.73046875 235.6796875 C192.408704 238.34433257 183.67325578 237.08494005 175.9921875 236.78759766 C165.84790896 236.42309287 158.19034362 237.04023788 149 242 C149.680625 242.639375 150.36125 243.27875 151.0625 243.9375 C159.95217604 252.90315618 164.29033499 261.20015394 165.3125 273.875 C165.17939676 283.70800221 162.19172123 294.24915809 156.85546875 302.49609375 C155.74703001 305.74042816 156.20878553 308.12635643 156.68286133 311.48217773 C158.91794252 329.22689853 157.07470316 346.23400397 146.8125 361.1875 C140.71185426 367.28814574 133.69532651 371.26332271 126 375 C116.85361768 379.45420602 109.20905681 383.78166178 103.28125 392.26171875 C101.41816478 394.7893801 99.97830413 395.9610567 97 397 C86.6797871 398.26015231 77.6085828 389.89644674 69.75 384.25 C63.64254416 379.91282121 57.22432563 377.42273354 50.21484375 374.88671875 C49.23507568 374.53182373 48.25530762 374.17692871 47.24584961 373.8112793 C46.50471924 373.54355713 45.76358887 373.27583496 45 373 C45.49922236 416.0413611 45.49922236 416.0413611 48 459 C44.37 459.33 40.74 459.66 37 460 C33.6786945 439.94318429 33.76422739 419.69218751 33.46777344 399.41387939 C33.4166948 395.97379473 33.36146909 392.53377658 33.30664062 389.09375 C33.20069899 382.395887 33.09874221 375.6979728 33 369 C30.66528886 371.02062796 29.17770065 372.33064863 28.37385559 375.35852051 C28.31469467 376.23085327 28.25553375 377.10318604 28.19458008 378.00195312 C28.07975029 379.49631897 28.07975029 379.49631897 27.96260071 381.02087402 C27.86703133 382.63476013 27.86703133 382.63476013 27.76953125 384.28125 C27.68877853 385.40454712 27.60802582 386.52784424 27.52482605 387.68518066 C27.27013838 391.28916616 27.04120114 394.89428191 26.8125 398.5 C26.64812696 400.8660001 26.4821279 403.23188784 26.31445312 405.59765625 C24.90459727 425.80655702 23.92089051 445.99889736 23.4375 466.25 C23.39410778 467.98958902 23.35048867 469.72917241 23.30664062 471.46875 C23.20183156 475.64577341 23.10002239 479.82285934 23 484 C19.37 484.33 15.74 484.66 12 485 C11.63959844 463.08943361 11.98378972 441.31134838 13.375 419.4375 C13.46982162 417.93317917 13.46982162 417.93317917 13.56655884 416.39846802 C14.49318543 401.91308133 15.68854936 387.45524977 17 373 C15.02 373.33 13.04 373.66 11 374 C7.10219515 405.62195391 4.60945813 437.18163403 3 469 C-0.63 469 -4.26 469 -8 469 C-8.58942812 441.46060847 -5.77477985 414.16402959 -2.65872192 386.84455872 C-2.0578303 381.56713706 -1.51027655 376.28688593 -1 371 C-10.68427245 408.01114231 -17.37615636 445.16757463 -23 483 C-26.63 482.67 -30.26 482.34 -34 482 C-33.3305688 469.92234545 -31.45338325 458.1141735 -29.5 446.1875 C-29.23938782 444.58468674 -29.23938782 444.58468674 -28.97351074 442.94949341 C-25.25738184 420.24195218 -20.7459276 397.63584559 -14.77539062 375.40283203 C-14.57999695 374.66343887 -14.38460327 373.92404572 -14.18328857 373.1622467 C-13.80927188 371.7556667 -13.42533761 370.35167491 -13.03009033 368.95091248 C-12.45294312 366.88407578 -12.45294312 366.88407578 -12 364 C-13.91464285 361.62591011 -13.91464285 361.62591011 -17.2734375 361.91796875 C-18.64154648 361.99247641 -20.00882757 362.08335374 -21.375 362.1875 C-22.45539551 362.26750244 -22.45539551 362.26750244 -23.55761719 362.34912109 C-34.18781966 363.24794647 -42.41350992 365.75432099 -51.50390625 371.4765625 C-57.77836258 375.30604289 -65.79024505 374.97600464 -72.796875 373.3515625 C-82.33124219 369.88721169 -89.41271689 362.99925603 -94 354 C-95.94135295 348.49275916 -96.40170728 343.33554715 -96.625 337.5625 C-96.66367188 336.73556641 -96.70234375 335.90863281 -96.7421875 335.05664062 C-96.83553092 333.03808927 -96.91880961 331.01907669 -97 329 C-98.37671875 328.58041016 -98.37671875 328.58041016 -99.78125 328.15234375 C-109.18005449 325.08193598 -116.79341054 321.88969388 -121.5 312.6875 C-123.91987494 306.36356015 -124.1271277 300.15755544 -121.375 293.9375 C-119.70921141 290.01708592 -120.30601453 287.84145203 -121.4453125 283.83984375 C-122.21032148 279.92321329 -122.20212619 276.10624936 -122.1875 272.125 C-122.18810425 270.99976929 -122.18810425 270.99976929 -122.1887207 269.85180664 C-122.15790233 266.64923404 -122.01920307 264.05760921 -121 261 C-121.7125293 261.21148682 -122.42505859 261.42297363 -123.15917969 261.64086914 C-130.96329751 263.79553927 -138.17199134 264.50930967 -146.25 264.4375 C-147.42860596 264.43137695 -148.60721191 264.42525391 -149.8215332 264.41894531 C-161.89931303 264.20343349 -173.54621676 262.48134561 -184 256 C-186.48038907 252.2794164 -186.46337203 250.40203429 -186 246 C-182.62081377 241.09874405 -177.0856922 240.13194372 -171.6875 238.4375 C-145.6990893 229.80294096 -119.21776687 217.53488761 -105.2421875 192.7265625 C-103.99420735 189.98728531 -103.12782394 188.01096391 -103 185 C-104.40480969 182.26004245 -104.40480969 182.26004245 -106.4375 179.625 C-108.77962114 176.14460799 -109.95633532 174.25007954 -110.6875 170.0625 C-109.86147189 166.38292025 -108.96074431 165.2885219 -106 163 C-103.1171875 162.75 -103.1171875 162.75 -99.875 163 C-88.28263119 163.28400013 -81.34922334 158.16105531 -72.6875 151.14453125 C-67.66910338 147.14002581 -63.26317332 147.42511936 -57 148 C-51.8891647 149.23830811 -46.71911372 150.64044314 -42 153 C-42.37511719 152.28199219 -42.75023437 151.56398437 -43.13671875 150.82421875 C-46.4797084 144.0624538 -48.90979665 137.47370522 -50.8125 130.1875 C-51.0189917 129.40012451 -51.2254834 128.61274902 -51.43823242 127.80151367 C-59.6579476 94.98134057 -49.15609872 61.46974242 -32.515625 33.08203125 C-10.97318945 -2.51468925 -10.97318945 -2.51468925 0 0 Z M26 10 C18.48123809 17.20056979 11.34267822 24.43822721 5.2421875 32.8984375 C3 36 3 36 0.7578125 38.6640625 C-3.82175284 44.56225755 -4.4625678 48.7964271 -3.5625 56 C-2.97520199 60.16529819 -2.38114473 63.4282829 0 67 C0.60585937 65.87464844 1.21171875 64.74929687 1.8359375 63.58984375 C7.92793066 52.38602306 14.17753307 41.10420453 22.2890625 31.20703125 C24.20422697 29.2019803 24.20422697 29.2019803 24 27 C29.16818125 24.74720304 33.6125315 24.48226167 39 26 C41.5625 28 41.5625 28 44 31 C45.39095021 32.56684858 46.78715034 34.12904635 48.1875 35.6875 C48.86167969 36.45449219 49.53585937 37.22148438 50.23046875 38.01171875 C51.44659636 39.37818443 52.70651734 40.70651734 54 42 C54.58939897 39.29799579 54.58939897 39.29799579 54 36 C52.48762025 34.06901514 50.8065709 32.50539877 48.99609375 30.8515625 C47.00315236 29.00292411 45.26117354 27.06868003 43.5 25 C41.21472851 22.36785694 38.91068797 19.76830797 36.5 17.25 C35.9946875 16.71890625 35.489375 16.1878125 34.96875 15.640625 C32.19117172 13.32597644 29.17053649 11.73624618 26 10 Z M63 22 C63.0721875 22.67160156 63.144375 23.34320313 63.21875 24.03515625 C63.73208464 29.56063329 64.05283327 34.84545226 63.75 40.38671875 C63.11215738 53.68483893 64.82614121 61.58592817 71.75976562 72.82519531 C73.98875813 76.7338302 75.61103603 80.87972736 77.25 85.0625 C77.57742188 85.89515381 77.90484375 86.72780762 78.2421875 87.58569336 C81.20238593 95.27574136 83.70202281 103.08965544 86 111 C86.33 111 86.66 111 87 111 C87.81499281 80.01773484 82.8455744 47.71373929 64 22 C63.67 22 63.34 22 63 22 Z M-16 28 C-34.37024963 54.5885192 -47.74417023 87.39184852 -41.8125 120.125 C-38.18512074 138.10503663 -30.11406727 154.26852321 -18 168 C-16.97245707 164.81650811 -17.08933393 162.83589128 -17.9140625 159.6171875 C-22.75962418 137.2851132 -18.89295684 112.79700984 -10.11108398 91.97045898 C-7.62517267 85.66720585 -8.24982025 81.43896374 -10 75 C-10.35781905 73.36602487 -10.702863 71.72920045 -11.03515625 70.08984375 C-11.2043457 69.25662598 -11.37353516 68.4234082 -11.54785156 67.56494141 C-14.12677374 54.39873623 -14.80502931 41.39583085 -15 28 C-15.33 28 -15.66 28 -16 28 Z M32 35 C30.76056727 36.39671464 30.76056727 36.39671464 29.56640625 38.26953125 C29.08800293 38.98326904 28.60959961 39.69700684 28.11669922 40.43237305 C27.60381348 41.21781494 27.09092773 42.00325684 26.5625 42.8125 C26.02898926 43.62565674 25.49547852 44.43881348 24.94580078 45.27661133 C3.65283023 78.04639865 -16.12483878 118.36301126 -7.97241211 158.64501953 C-4.73089344 171.80206741 2.03521854 185.63447516 12 195 C18.52240008 198.94210994 25.57985482 199.36264418 33 200 C33.6801416 200.06413086 34.3602832 200.12826172 35.06103516 200.19433594 C45.34906313 201.06085079 52.67433447 199.58308437 61 193 C73.51323982 182.31796601 79.32450253 169.27921616 81 153 C83.98148605 113.08993238 63.24696034 71.27806347 39 41 C38.54077148 40.41299316 38.08154297 39.82598633 37.60839844 39.22119141 C36.45274997 37.77515139 35.23163885 36.38189033 34 35 C33.34 35 32.68 35 32 35 Z M-72.25390625 164.828125 C-78.92831029 170.10688552 -86.6812456 173.40023954 -95 175 C-89.68275268 185.77083432 -84.62987436 193.00155891 -73 197 C-61.82082949 200.66130038 -48.10337185 197.66007246 -36.91015625 195.38476562 C-28.3093479 193.65229196 -19.75068022 192.58958484 -11 192 C-17.35459451 176.98639758 -37.99249548 167.11537071 -52 161 C-61.23226458 157.70769617 -64.91385706 158.52707821 -72.25390625 164.828125 Z M67.27734375 201.14453125 C61.02869745 206.23562386 52.99452459 210.04162755 45 211 C44.30840599 212.84725052 44.30840599 212.84725052 44 215 C45.72226496 218.24849977 45.72226496 218.24849977 49 219 C50.3632693 219.09839338 51.73065213 219.14540195 53.09741211 219.15771484 C53.91934555 219.16797699 54.74127899 219.17823914 55.58811951 219.18881226 C56.91928551 219.19976425 56.91928551 219.19976425 58.27734375 219.2109375 C60.17253422 219.23903679 62.06771638 219.2677014 63.96289062 219.296875 C66.93790172 219.33787934 69.91276279 219.37477893 72.88793945 219.40136719 C104.37650007 219.70690236 104.37650007 219.70690236 115.0390625 229.9609375 C117.90196673 233.1301607 120.20605458 236.10878505 122 240 C128.61749694 240.7491506 132.23984568 239.13227596 137.91796875 235.796875 C141.36325003 233.78821925 144.87258847 231.97181782 148.4375 230.1875 C149.59121094 229.60355469 150.74492187 229.01960938 151.93359375 228.41796875 C156.92636161 226.10921113 160.95155615 225.92241505 166.40625 226.11328125 C167.8879875 226.14545377 169.36976108 226.1759983 170.8515625 226.20507812 C173.16474253 226.25406139 175.47597106 226.3116052 177.78808594 226.39770508 C189.33096496 226.8092403 198.5093078 225.86929648 207.51953125 217.72167969 C211.6445167 213.49146502 214.00786056 209.8288192 215 204 C214.443125 203.86464844 213.88625 203.72929687 213.3125 203.58984375 C201.45370375 200.24454143 193.78609016 190.08891841 186.23046875 180.83203125 C179.75880124 172.94321027 169.55768868 163.4433541 159 162.1875 C128.82364514 159.93926164 88.46845095 180.79267582 67.27734375 201.14453125 Z M-95 197 C-95.32871094 197.60585937 -95.65742188 198.21171875 -95.99609375 198.8359375 C-99.90095584 205.71442085 -104.45994002 211.36971103 -110 217 C-110.75023437 217.763125 -111.50046875 218.52625 -112.2734375 219.3125 C-119.10312345 225.84721613 -126.75731701 230.49114745 -135 235 C-135.64775391 235.35481445 -136.29550781 235.70962891 -136.96289062 236.07519531 C-146.96118103 241.47307592 -157.21012115 245.47459404 -168 249 C-167.21630127 251.13744825 -167.21630127 251.13744825 -165.32250977 251.61962891 C-159.16302393 252.97286486 -153.23659451 253.38400476 -146.9375 253.375 C-145.43654785 253.37584595 -145.43654785 253.37584595 -143.90527344 253.37670898 C-133.9958633 253.23154231 -125.37565861 251.12521954 -116 248 C-114.50904391 245.8852964 -114.50904391 245.8852964 -113.0625 243.25 C-103.98972999 228.58520823 -90.47202494 216.5960846 -75 209 C-75 208.34 -75 207.68 -75 207 C-75.97839844 206.63648438 -75.97839844 206.63648438 -76.9765625 206.265625 C-82.1038655 204.29940261 -86.50530236 202.21049831 -91 199 C-92.32461459 198.3161737 -93.65653514 197.6460065 -95 197 Z M-96.08984375 237.734375 C-105.08137821 248.39918069 -111.23922174 258.60679064 -111.0625 272.8125 C-111.05798828 273.50537109 -111.05347656 274.19824219 -111.04882812 274.91210938 C-111.03713156 276.60811068 -111.01919924 278.30406703 -111 280 C-107.24094307 277.91754899 -104.33807856 275.60862578 -101.3125 272.5625 C-100.54550781 271.80066406 -99.77851563 271.03882813 -98.98828125 270.25390625 C-96.93931342 268.14541864 -96.93931342 268.14541864 -95.95703125 265.76171875 C-95.64121094 265.18035156 -95.32539063 264.59898437 -95 264 C-91.375 263.25 -91.375 263.25 -88 263 C-86 266 -86 266 -86 268.1875 C-88.78341088 276.01584309 -95.86726577 283.00376768 -102.5 287.8125 C-107.05813604 291.80086904 -111.71320615 296.94086562 -112.29296875 303.125 C-111.88468421 307.13163225 -110.63899508 308.96515566 -108 312 C-104.69623419 314.19236072 -101.12363505 315.60183503 -97.3984375 316.921875 C-96.08746094 317.39367187 -96.08746094 317.39367187 -94.75 317.875 C-93.94046875 318.14054687 -93.1309375 318.40609375 -92.296875 318.6796875 C-88.92288154 320.61915993 -87.73509647 322.51417556 -86 326 C-85.36739462 330.1445622 -85.49290638 334.29785222 -85.51171875 338.48046875 C-85.39202091 345.65145748 -83.80641016 350.7974564 -79.03515625 356.2421875 C-73.48211015 360.83857021 -69.26262575 363.69468343 -61.73046875 363.59375 C-57.40915381 362.65406492 -53.83196599 360.3669683 -50.13696289 358.02197266 C-44.02474044 354.16741796 -38.03986844 352.8563899 -30.921875 352.0703125 C-29.58198105 351.91318795 -28.24213883 351.7556217 -26.90234375 351.59765625 C-24.83208538 351.35992557 -22.76158216 351.12626006 -20.68994141 350.90087891 C-7.79423922 349.78760391 -7.79423922 349.78760391 4 345 C5.38658608 341.88273646 5.77201602 340.53103259 5.9375 337.3125 C6.10935646 335.87013911 6.28900321 334.42868435 6.4765625 332.98828125 C6.55680664 332.29814941 6.63705078 331.60801758 6.71972656 330.89697266 C8.13219046 321.33700362 15.18133665 313.9078614 21.5625 307.1875 C28.93803339 299.14033288 32.43754437 289.94029549 32.265625 279.109375 C31.36207763 268.53255583 26.52269704 259.76869064 21.21875 250.82421875 C15.05581879 240.3210047 12.4769318 231.56891939 15.38671875 219.3359375 C15.58910156 218.56507813 15.79148437 217.79421875 16 217 C16.19207031 216.20851562 16.38414062 215.41703125 16.58203125 214.6015625 C17.03835278 212.73031592 17.51662622 210.86444171 18 209 C15.24668502 208.0725293 13.82348583 207.6433699 11 208 C7.64178712 210.18366941 5.03862688 213.02258964 2.3125 215.9375 C1.52302979 216.75782715 0.73355957 217.5781543 -0.07983398 218.42333984 C-11.42901632 230.42107991 -20.4704652 243.32516574 -28 258 C-28.31807617 258.61166016 -28.63615234 259.22332031 -28.96386719 259.85351562 C-34.26511299 270.16795626 -37.73618848 280.89347656 -41 292 C-43.3125 292.625 -43.3125 292.625 -46 293 C-47.485 292.01 -47.485 292.01 -49 291 C-49.75886207 284.92119864 -47.96536554 279.77261306 -46 274.0625 C-45.68530762 273.13808105 -45.37061523 272.21366211 -45.04638672 271.26123047 C-42.06748105 262.76746251 -38.38357602 254.85008592 -34 247 C-33.47817139 246.05350586 -33.47817139 246.05350586 -32.94580078 245.08789062 C-25.4099337 231.55437007 -16.27694558 219.64290045 -5 209 C-1.57907524 205.82666225 -1.57907524 205.82666225 1 202 C-33.94942087 200.78788136 -71.48072677 212.02803624 -96.08984375 237.734375 Z M30 210 C28.6286383 212.17804505 27.95982947 213.50791097 28.171875 216.10546875 C29.35450914 220.23910976 31.29200774 223.84197527 33.3125 227.625 C33.75400391 228.45604248 34.19550781 229.28708496 34.65039062 230.14331055 C42.35766325 244.4251447 51.27232013 258.01706913 61 271 C61.42071777 271.56493164 61.84143555 272.12986328 62.27490234 272.71191406 C75.24802275 290.01915849 90.14780866 307.57120371 110 317 C114.44684751 300.79800777 115.28188238 283.7301326 115.375 267 C115.38869629 265.75524902 115.40239258 264.51049805 115.41650391 263.22802734 C115.36521342 252.99904013 114.28639501 244.30008587 107.03125 236.69140625 C99.43510055 230.36615103 90.62067409 229.8647773 81.16796875 229.7890625 C79.21548643 229.76099244 77.26301258 229.73232797 75.31054688 229.703125 C72.24959567 229.66192319 69.18880242 229.62501122 66.12768555 229.59863281 C63.16161949 229.57089245 60.19625926 229.5250241 57.23046875 229.4765625 C56.32499802 229.47330963 55.41952728 229.47005676 54.48661804 229.46670532 C47.74485243 229.33746317 41.88260023 228.43912327 36.5625 223.9375 C34.33541103 219.75057274 34.18193456 215.68481497 34 211 C32.68 210.67 31.36 210.34 30 210 Z M130.375 250 C129.55773437 250.185625 128.74046875 250.37125 127.8984375 250.5625 C127.27195312 250.706875 126.64546875 250.85125 126 251 C125.98541748 251.86351074 125.97083496 252.72702148 125.95581055 253.61669922 C125.61581126 271.76521262 124.77766014 289.56659989 122.25952148 307.56933594 C121.99305373 310.06505839 121.9554757 312.49207764 122 315 C132.85759791 312.46359393 140.53725366 307.14242165 147 298 C151.90028641 289.23652483 155.72239774 278.97513575 153.53515625 268.84765625 C151.04359711 260.22302847 146.44351456 254.35431865 138.734375 249.8125 C135.7936773 248.43487585 133.44126384 249.29913969 130.375 250 Z M36 254 C37 256 37 256 37 256 Z M37 256 C38 258 38 258 38 258 Z M38 258 C38.59467062 260.71073206 39.20035551 263.41820837 39.8125 266.125 C39.97814453 266.88554687 40.14378906 267.64609375 40.31445312 268.4296875 C41.98008279 275.72074564 45.07257427 281.23709014 49.25 287.4375 C57.68850064 300.32168348 66.21212171 316.10832105 64 332 C62.1061948 339.92063181 58.38017493 344.18431241 52 349 C50.82869647 349.97361517 49.66147118 350.95217611 48.5 351.9375 C47.675 352.618125 46.85 353.29875 46 354 C46.41982104 358.89791212 48.30360234 360.87152569 52 364 C54.59172011 365.18350633 57.26848064 365.95310252 60 366.75 C68.58468748 369.50566991 74.85060255 373.54822067 82 379 C83.67533946 380.22513811 85.36152969 381.43570369 87.0625 382.625 C87.73410156 383.11226563 88.40570313 383.59953125 89.09765625 384.1015625 C90.96214349 385.16986931 90.96214349 385.16986931 93.06640625 384.8671875 C95.4649711 383.79146751 96.32355596 382.61331837 97.875 380.5 C105.23956089 371.74383418 116.33448201 366.51433564 126.58178711 361.82617188 C130.87940037 359.80427939 133.83108837 357.52355517 137 354 C138.0209375 352.88625 138.0209375 352.88625 139.0625 351.75 C145.00812482 343.31104864 146.16014294 335.25974522 146.0625 325.1875 C146.05798828 324.30384766 146.05347656 323.42019531 146.04882812 322.50976562 C146.03709866 320.33981441 146.01916495 318.16989828 146 316 C144.99582031 316.54269531 143.99164063 317.08539063 142.95703125 317.64453125 C134.4958121 322.11390263 126.58906698 325.68336645 117 327 C115.60007812 327.20496094 115.60007812 327.20496094 114.171875 327.4140625 C101.50852555 328.39094946 90.88324541 318.20467887 81.70947266 310.48681641 C65.21146894 296.13765294 51.961571 277.93520708 40.1706543 259.63916016 C39.78433838 259.0982373 39.39802246 258.55731445 39 258 C38.67 258 38.34 258 38 258 Z M41 295 C40.67128906 295.73863281 40.34257812 296.47726562 40.00390625 297.23828125 C35.93180236 305.92322912 30.77189246 312.9015542 24.23046875 319.890625 C17.50356877 327.17951915 15.64079216 335.32482741 14.58984375 345.01953125 C13.93031943 348.35209455 13.07321267 350.31216233 11 353 C8.51953125 354.58203125 8.51953125 354.58203125 5.8125 355.8125 C4.46091797 356.44091797 4.46091797 356.44091797 3.08203125 357.08203125 C2.39496094 357.38496094 1.70789063 357.68789063 1 358 C5.02126332 362.02126332 11.17574538 362.16684293 16.625 362.375 C22.66449642 362.22526042 25.64387382 360.43599486 29.84375 356.09375 C33.3599601 352.30042089 33.3599601 352.30042089 35.953125 347.875 C37.29978582 345.46307017 38.50718465 345.14144703 41 344 C42.90897042 342.60792845 44.78179183 341.16554428 46.625 339.6875 C47.58664062 338.92824219 48.54828125 338.16898437 49.5390625 337.38671875 C52.87583337 334.15058065 53.80692935 331.54456518 54.375 327 C53.92318331 315.35316986 47.61889058 304.86033469 42 295 C41.67 295 41.34 295 41 295 Z " fill="#C186E7" transform="translate(236,12)"/>
</svg>
